
<svg version="1.0" xmlns="http://www.w3.org/2000/svg"
 width="980.000000pt" height="804.000000pt" viewBox="0 0 980.000000 804.000000"
 preserveAspectRatio="xMidYMid meet">
<g transform="translate(0.000000,804.000000) scale(0.100000,-0.100000)"
fill="#000000" stroke="none">
<path d="M125 8021 c-75 -35 -125 -111 -125 -188 1 -81 69 -171 147 -192 24
-7 223 -11 549 -11 482 0 516 -1 576 -20 112 -34 225 -122 287 -223 12 -20 83
-241 156 -490 73 -248 268 -911 433 -1472 363 -1231 552 -1888 627 -2173 30
-118 71 -255 91 -305 184 -478 505 -770 908 -826 53 -8 685 -11 2034 -11
l1957 0 52 24 c77 36 108 88 108 181 0 93 -31 145 -108 181 l-52 24 -1960 0
c-1662 0 -1970 3 -2028 15 -186 39 -355 189 -467 414 -34 68 -80 182 -80 197
0 2 1041 5 2313 6 l2312 3 80 23 c194 54 299 142 427 357 115 194 209 395 838
1810 208 468 406 911 440 985 103 224 145 367 156 530 20 289 -118 499 -372
564 -52 13 -433 16 -3249 19 -2034 3 -3205 1 -3232 -5 -23 -6 -60 -25 -82 -44
-108 -93 -87 -266 39 -331 l46 -24 3194 -5 c2784 -4 3197 -6 3217 -19 64 -42
34 -251 -68 -472 -23 -49 -229 -511 -459 -1028 -623 -1402 -705 -1579 -803
-1744 -78 -133 -117 -174 -187 -197 -53 -18 -151 -19 -2387 -22 l-2332 -3 -15
53 c-8 29 -63 229 -121 443 -129 474 -386 1397 -747 2685 -190 679 -278 980
-298 1015 -83 146 -213 230 -420 272 -62 13 -189 16 -715 20 -611 3 -642 2
-680 -16z"/>
<path d="M3665 1899 c-207 -30 -398 -131 -553 -294 -248 -257 -325 -629 -204
-972 175 -494 721 -752 1219 -575 123 43 226 107 325 201 145 137 237 295 285
489 25 101 23 332 -5 433 -50 185 -141 339 -275 465 -215 203 -503 295 -792
253z m270 -401 c124 -26 253 -114 328 -224 229 -336 49 -786 -348 -869 -88
-18 -132 -18 -220 0 -167 35 -317 149 -389 295 -38 78 -66 186 -66 255 0 172
105 366 247 461 140 93 278 118 448 82z"/>
<path d="M7545 1899 c-238 -35 -472 -175 -622 -373 -63 -84 -138 -243 -164
-351 -31 -126 -31 -314 0 -440 26 -108 101 -267 164 -351 352 -464 1028 -513
1437 -104 116 116 209 277 251 435 32 120 37 303 11 425 -103 500 -575 832
-1077 759z m295 -406 c148 -40 280 -151 348 -293 61 -128 75 -232 48 -361 -51
-241 -260 -423 -509 -445 -192 -16 -393 82 -504 249 -71 105 -88 166 -88 312
0 106 3 129 28 195 100 272 394 421 677 343z"/>
</g>
</svg>
